<svg width="20" height="20" viewBox="0 0 20 20" fill="none" xmlns="http://www.w3.org/2000/svg">
<path d="M10 19.3075C15.1777 19.3075 19.375 15.1102 19.375 9.93253C19.375 4.75486 15.1777 0.557526 10 0.557526C4.82233 0.557526 0.625 4.75486 0.625 9.93253C0.625 15.1102 4.82233 19.3075 10 19.3075Z" fill="#EC407A"/>
<path d="M10 0C4.48625 0 0 4.48625 0 10C0 15.5138 4.48625 20 10 20C15.5138 20 20 15.5138 20 10C20 4.48625 15.5138 0 10 0ZM18.7463 10.075C16.6287 9.51625 14.4575 9.45125 12.3888 9.8775C12.1063 9.1725 11.8012 8.47875 11.4738 7.79375C13.345 6.91875 15.075 5.7325 16.5925 4.26625C17.9312 5.8025 18.75 7.805 18.75 10C18.75 10.025 18.7463 10.0488 18.7463 10.075ZM15.7088 3.38375C14.2913 4.7525 12.6788 5.8675 10.9312 6.6825C9.9975 4.895 8.905 3.1875 7.66875 1.575C8.4125 1.36875 9.19125 1.25 10 1.25C12.1812 1.25 14.175 2.0575 15.7088 3.38375ZM6.43375 2.0175C7.7025 3.6325 8.81625 5.3525 9.765 7.15375C7.14 8.15625 4.29 8.54125 1.43625 8.2075C2.015 5.4375 3.91 3.15 6.43375 2.0175ZM1.25 10C1.25 9.8125 1.26625 9.62875 1.27875 9.445C2.01875 9.5325 2.75875 9.59 3.49625 9.59C5.84875 9.59 8.16 9.13 10.3263 8.28625C10.6262 8.91125 10.9087 9.545 11.17 10.1875C8.0975 11.11 5.36 13.0775 3.5175 15.8563C2.11375 14.3038 1.25 12.2525 1.25 10ZM4.43125 16.7438C6.12625 14.0788 8.71125 12.2 11.62 11.35C12.41 13.525 12.9787 15.7837 13.31 18.095C12.2887 18.515 11.1713 18.75 10 18.75C7.88625 18.75 5.945 17.9963 4.43125 16.7438ZM14.4825 17.5C14.1388 15.2975 13.5938 13.1412 12.8475 11.06C14.7362 10.705 16.7125 10.7887 18.6375 11.3325C18.2337 13.9525 16.67 16.1875 14.4825 17.5Z" fill="#C2185B"/>
</svg>
