<svg width="20" height="20" viewBox="0 0 20 20" fill="none" xmlns="http://www.w3.org/2000/svg">
<path d="M10 1.80167C12.67 1.80167 12.9863 1.81167 14.0408 1.86C15.1788 1.91208 16.235 2.14 17.0475 2.9525C17.86 3.765 18.0879 4.82125 18.14 5.95917C18.1879 7.01375 18.1983 7.33 18.1983 10C18.1983 12.67 18.1883 12.9863 18.14 14.0408C18.0879 15.1788 17.86 16.235 17.0475 17.0475C16.235 17.86 15.1788 18.0879 14.0408 18.14C12.9867 18.1879 12.6704 18.1983 10 18.1983C7.32958 18.1983 7.01333 18.1883 5.95917 18.14C4.82125 18.0879 3.765 17.86 2.9525 17.0475C2.14 16.235 1.91208 15.1788 1.86 14.0408C1.81208 12.9863 1.80167 12.67 1.80167 10C1.80167 7.33 1.81167 7.01375 1.86 5.95917C1.91208 4.82125 2.14 3.765 2.9525 2.9525C3.765 2.14 4.82125 1.91208 5.95917 1.86C7.01375 1.81208 7.33 1.80167 10 1.80167ZM10 0C7.28417 0 6.94375 0.0116667 5.87708 0.06C4.25208 0.134167 2.82458 0.532083 1.67833 1.67833C0.5325 2.82417 0.134167 4.25125 0.06 5.87708C0.0116667 6.94375 0 7.28417 0 10C0 12.7158 0.0116667 13.0562 0.06 14.1229C0.134167 15.7479 0.532083 17.1754 1.67833 18.3217C2.82417 19.4675 4.25125 19.8658 5.87708 19.94C6.94375 19.9883 7.28417 20 10 20C12.7158 20 13.0562 19.9883 14.1229 19.94C15.7475 19.8658 17.1754 19.4679 18.3217 18.3217C19.4675 17.1758 19.8658 15.7487 19.94 14.1229C19.9883 13.0562 20 12.7158 20 10C20 7.28417 19.9883 6.94375 19.94 5.87708C19.8658 4.25208 19.4679 2.82458 18.3217 1.67833C17.1758 0.5325 15.7487 0.134167 14.1229 0.06C13.0562 0.0116667 12.7158 0 10 0Z" fill="#FA00FF"/>
<path d="M9.99999 4.86499C7.16374 4.86499 4.86499 7.16416 4.86499 9.99999C4.86499 12.8358 7.16374 15.135 9.99999 15.135C12.8362 15.135 15.135 12.8362 15.135 9.99999C15.135 7.16374 12.8362 4.86499 9.99999 4.86499ZM9.99999 13.3333C8.15916 13.3333 6.66666 11.8408 6.66666 9.99999C6.66666 8.15916 8.15916 6.66666 9.99999 6.66666C11.8408 6.66666 13.3333 8.15916 13.3333 9.99999C13.3333 11.8408 11.8408 13.3333 9.99999 13.3333Z" fill="#FA00FF"/>
<path d="M15.3379 5.8621C16.0007 5.8621 16.5379 5.32484 16.5379 4.6621C16.5379 3.99936 16.0007 3.4621 15.3379 3.4621C14.6752 3.4621 14.1379 3.99936 14.1379 4.6621C14.1379 5.32484 14.6752 5.8621 15.3379 5.8621Z" fill="#FA00FF"/>
</svg>
