<svg width="122" height="42" viewBox="0 0 122 42" fill="none" xmlns="http://www.w3.org/2000/svg">
<path d="M6.28491 32.0014V0.725098H13.0823C14.0275 0.725098 14.8616 0.905805 15.5844 1.26722C16.335 1.60084 16.9745 2.07346 17.5027 2.68508C18.0309 3.29671 18.434 4.00563 18.712 4.81187C18.99 5.5903 19.129 6.42434 19.129 7.31397V25.4542C19.129 26.3717 18.9761 27.2335 18.6703 28.0397C18.3645 28.846 17.9475 29.541 17.4193 30.1248C16.8911 30.7086 16.2516 31.1674 15.501 31.501C14.7504 31.8346 13.9441 32.0014 13.0823 32.0014H6.28491ZM13.0823 27.8729C13.7773 27.8729 14.2777 27.6366 14.5836 27.164C14.8894 26.6914 15.0423 26.1215 15.0423 25.4542V7.31397C15.0423 6.59114 14.8894 5.97952 14.5836 5.4791C14.2777 4.97868 13.7773 4.72846 13.0823 4.72846H10.4551V27.8729H13.0823Z" fill="white"/>
<path d="M33.9495 32.0014V18.3649H28.8201V32.0014H24.65V0.725098H28.8201V14.2782H33.9495V0.725098H38.0362V32.0014H33.9495Z" fill="white"/>
<path d="M43.5852 32.0014V0.725098H47.7553V32.0014H43.5852Z" fill="white"/>
<path d="M62.2418 13.2773L66.412 0.725098H71.2077V32.0014H67.0375V11.4841L63.2843 23.244H61.1992L57.4461 11.4841V32.0014H53.2759V0.725098H58.0716L62.2418 13.2773Z" fill="white"/>
<path d="M87.1967 32.0014L86.1125 24.0781H80.7746L79.7321 32.0014H75.6453L80.3576 0.725098H86.6546L91.2835 32.0014H87.1967ZM81.3585 20.033H85.4869L83.4435 5.4791L81.3585 20.033Z" fill="white"/>
<path d="M107.664 25.4125C107.664 26.2188 107.525 27.025 107.247 27.8312C106.997 28.6097 106.636 29.3186 106.163 29.958C105.691 30.5696 105.107 31.0701 104.412 31.4593C103.744 31.8207 102.994 32.0014 102.16 32.0014H99.9496C99.06 32.0014 98.2676 31.8068 97.5726 31.4176C96.9054 31.0006 96.3355 30.4862 95.8628 29.8746C95.3902 29.2352 95.0288 28.5263 94.7786 27.7478C94.5562 26.9694 94.445 26.191 94.445 25.4125V22.8687H98.6151V25.4125C98.6151 26.1354 98.7681 26.7331 99.0739 27.2057C99.4075 27.6505 99.9357 27.8729 100.659 27.8729H101.409C102.132 27.8729 102.674 27.6366 103.036 27.164C103.397 26.6914 103.578 26.1076 103.578 25.4125V21.9096C103.494 21.1589 103.119 20.4917 102.452 19.9079C101.812 19.2963 100.853 18.6568 99.5743 17.9896C98.9905 17.656 98.3927 17.2946 97.7811 16.9054C97.1695 16.4884 96.6135 16.0157 96.113 15.4875C95.6126 14.9593 95.2095 14.3616 94.9037 13.6943C94.5979 12.9993 94.445 12.207 94.445 11.3173V7.35567C94.445 6.43824 94.5979 5.5764 94.9037 4.77017C95.2095 3.96393 95.6265 3.2689 96.1547 2.68508C96.7108 2.07346 97.3641 1.60084 98.1147 1.26722C98.8932 0.905805 99.7411 0.725098 100.659 0.725098H101.743C102.66 0.725098 103.48 0.905805 104.203 1.26722C104.954 1.62864 105.579 2.11516 106.08 2.72678C106.608 3.33841 106.997 4.04734 107.247 4.85357C107.525 5.6598 107.664 6.49384 107.664 7.35567V10.0246H103.578V7.35567C103.578 6.66064 103.397 6.07682 103.036 5.6042C102.702 5.13158 102.215 4.88137 101.576 4.85357H100.45C99.755 4.90917 99.2685 5.18718 98.9905 5.6876C98.7403 6.16022 98.6151 6.71625 98.6151 7.35567V10.6084C98.6151 11.1922 98.6986 11.6788 98.8654 12.068C99.06 12.4294 99.2963 12.7491 99.5743 13.0271C99.8801 13.3051 100.228 13.5553 100.617 13.7777C101.006 13.9723 101.395 14.1809 101.784 14.4033C102.424 14.7925 103.091 15.2095 103.786 15.6543C104.481 16.0991 105.107 16.6135 105.663 17.1973C106.247 17.7533 106.719 18.4066 107.081 19.1573C107.47 19.8801 107.664 20.7141 107.664 21.6594V25.4125Z" fill="white"/>
<mask id="path-2-outside-1" maskUnits="userSpaceOnUse" x="0" y="-0.24585" width="122" height="43" fill="black">
<rect fill="white" y="-0.24585" width="122" height="43"/>
<path d="M7.90278 13.9692H8.75799L8.92089 14.7022C8.81229 15.2317 8.75799 15.5303 8.75799 15.5982C9.80325 14.8244 10.6924 14.4375 11.4254 14.4375H11.6901C12.4911 14.4375 12.8915 14.8244 12.8915 15.5982V16.0461C12.8915 16.4534 12.5454 17.0846 11.853 17.9398H11.9956C12.2671 17.9398 13.0544 17.4511 14.3576 16.4737H14.6223C14.8259 16.5823 14.982 16.6366 15.0906 16.6366V17.3697C13.5431 18.5235 11.9752 19.1005 10.387 19.1005C9.78967 19.5892 9.30098 19.8335 8.92089 19.8335H8.33038C8.12676 19.8335 8.02495 19.7453 8.02495 19.5688V19.2634C8.02495 19.1005 8.61545 18.7611 9.79646 18.2453C10.9775 17.105 11.568 16.3244 11.568 15.9036V15.5982C11.568 15.4081 11.4662 15.3131 11.2625 15.3131C10.0272 15.6389 8.8055 17.0032 7.59734 19.4059C5.88692 22.6638 4.03396 26.7159 2.03847 31.5621H1.73304L1 31.4399V31.1345C1.59729 29.5327 3.79641 24.0553 7.59734 14.7022C7.59734 14.2135 7.69915 13.9692 7.90278 13.9692Z"/>
<path d="M16.7994 14.4579H17.2677C17.4442 14.485 17.5325 14.5869 17.5325 14.7633V15.0484C16.6637 17.3697 16.2293 18.6389 16.2293 18.8561C16.3922 18.8561 17.1727 18.0213 18.5709 16.3516L18.9985 16.0869H19.1614L19.8945 16.2294V16.5145C19.8945 16.7588 19.7519 17.3968 19.4669 18.4285L19.7316 18.5507C19.9759 18.5507 21.2519 17.872 23.5597 16.5145C23.9398 16.6502 24.1298 16.7995 24.1298 16.9624V17.0846C22.6094 18.4285 21.2452 19.1616 20.037 19.2837H19.304C18.6117 19.2837 18.2655 19.0394 18.2655 18.5507C17.4917 19.3516 16.8605 19.7521 16.3718 19.7521H15.3333C15.0483 19.6435 14.9057 19.3448 14.9057 18.8561C15.7066 15.924 16.3379 14.4579 16.7994 14.4579Z"/>
<path d="M29.1373 7.55512H29.5852C29.7753 7.59584 29.8703 7.69765 29.8703 7.86055C29.8703 8.26779 29.4291 9.48952 28.5468 11.5257H63.4679L64.2009 11.6886V12.1162C64.2009 12.4149 63.3118 12.5642 61.5335 12.5642H60.9633L60.5357 12.2588H28.1192C28.1192 12.4217 24.3522 21.2724 16.8182 38.8111C17.0218 38.8111 17.1236 38.9536 17.1236 39.2387C16.5127 40.5961 15.9222 41.2749 15.3521 41.2749C14.8634 41.2206 14.619 41.078 14.619 40.8473L26.816 12.2588H17.4087C17.2186 12.2588 17.1236 12.157 17.1236 11.9533C17.2322 11.6683 17.5308 11.5257 18.0195 11.5257H26.9382C27.101 11.5257 27.7391 10.2565 28.8522 7.71801L29.1373 7.55512Z"/>
<path d="M31.0293 13.3991H31.5995C31.9524 13.7792 32.7873 14.2678 34.104 14.8651V15.0077C34.104 15.2384 33.5678 16.562 32.4954 18.9783V19.1005C32.7533 19.1005 33.5339 18.3674 34.837 16.9014C34.9999 16.5213 35.3461 16.3312 35.8755 16.3312H35.9977C36.2013 16.3448 36.3031 16.4466 36.3031 16.6366V16.9014C34.742 18.9647 33.5203 19.9964 32.6379 19.9964H32.0678C31.4705 19.9964 31.1719 19.6978 31.1719 19.1005C31.1719 18.6797 31.7148 17.3697 32.8008 15.1706C32.3664 15.062 31.9253 15.0077 31.4773 15.0077C29.604 19.5281 28.5248 21.924 28.2397 22.1955H27.5067C27.303 22.1955 27.2012 22.1005 27.2012 21.9104C29.3868 16.3312 30.6628 13.4941 31.0293 13.3991Z"/>
<path d="M41.1477 15.1298H41.5753C41.7246 15.1298 41.8672 15.2724 42.0029 15.5575C41.3377 16.8878 40.8083 18.062 40.4147 19.0801H40.5368C42.2337 17.329 43.3129 16.4534 43.7744 16.4534C43.978 16.5484 44.1206 16.5959 44.202 16.5959V17.0235C42.2472 19.1819 40.883 20.2611 40.1092 20.2611H39.8038C39.2336 20.2611 38.9486 20.0168 38.9486 19.5281C39.03 19.3245 39.0707 19.1751 39.0707 19.0801C37.8083 20.2611 36.8852 20.8516 36.3015 20.8516H35.5685C34.9712 20.8516 34.6725 20.553 34.6725 19.9557C34.6725 18.8833 35.7517 17.5597 37.9101 15.9851H38.9486C39.2608 15.9851 39.6002 16.1412 39.9667 16.4534C40.1839 15.9783 40.5775 15.5371 41.1477 15.1298ZM38.5006 16.7181C36.8445 18.1434 36.0164 19.2769 36.0164 20.1186C36.5323 19.9693 37.6522 18.9376 39.3762 17.0235C39.1183 17.0235 38.8264 16.9217 38.5006 16.7181Z"/>
<path d="M63.5021 0.75415C63.9229 0.957772 64.1673 1.14782 64.2351 1.32429V1.62972C64.1265 2.22701 62.07 7.50082 58.0654 17.4511C58.0654 17.519 58.0111 17.7226 57.9025 18.062C59.0835 16.1072 60.217 15.1298 61.303 15.1298H61.7306C61.9478 15.1298 62.0971 15.3742 62.1786 15.8629C61.7577 16.881 61.4116 17.8991 61.1401 18.9172C61.7781 18.5371 62.8573 17.614 64.3777 16.148H64.9682C65.1446 16.1615 65.2329 16.2633 65.2329 16.4534V16.7181C63.6039 18.4964 62.3822 19.5756 61.5677 19.9557H60.2645C60.1152 19.9557 59.9727 19.8131 59.8369 19.5281V18.9172C59.8369 18.4692 60.0813 17.6955 60.5699 16.5959H60.407C59.0496 18.9444 58.0247 20.1186 57.3324 20.1186H57.0473C56.5179 20.1186 56.226 19.9625 56.1717 19.6502V19.5281C56.7554 17.3968 59.0021 11.485 62.9116 1.79262L62.7691 1.05958C63.0677 0.855961 63.312 0.75415 63.5021 0.75415Z"/>
<path d="M70.0978 15.1298H70.5254C70.6747 15.1298 70.8173 15.2724 70.953 15.5575C70.2879 16.8878 69.7584 18.062 69.3648 19.0801H69.4869C71.1838 17.329 72.263 16.4534 72.7245 16.4534C72.9281 16.5484 73.0707 16.5959 73.1521 16.5959V17.0235C71.1974 19.1819 69.8331 20.2611 69.0593 20.2611H68.7539C68.1838 20.2611 67.8987 20.0168 67.8987 19.5281C67.9801 19.3245 68.0209 19.1751 68.0209 19.0801C66.7584 20.2611 65.8353 20.8516 65.2516 20.8516H64.5186C63.9213 20.8516 63.6226 20.553 63.6226 19.9557C63.6226 18.8833 64.7018 17.5597 66.8602 15.9851H67.8987C68.2109 15.9851 68.5503 16.1412 68.9168 16.4534C69.134 15.9783 69.5277 15.5371 70.0978 15.1298ZM67.4507 16.7181C65.7946 18.1434 64.9665 19.2769 64.9665 20.1186C65.4824 19.9693 66.6023 18.9376 68.3263 17.0235C68.0684 17.0235 67.7765 16.9217 67.4507 16.7181Z"/>
<path d="M75.6551 13.3991H76.2252C76.5781 13.7792 77.413 14.2678 78.7297 14.8651V15.0077C78.7297 15.2384 78.1935 16.562 77.1211 18.9783V19.1005C77.3791 19.1005 78.1596 18.3674 79.4628 16.9014C79.6257 16.5213 79.9718 16.3312 80.5013 16.3312H80.6234C80.8271 16.3448 80.9289 16.4466 80.9289 16.6366V16.9014C79.3678 18.9647 78.146 19.9964 77.2637 19.9964H76.6935C76.0962 19.9964 75.7976 19.6978 75.7976 19.1005C75.7976 18.6797 76.3406 17.3697 77.4266 15.1706C76.9922 15.062 76.551 15.0077 76.103 15.0077C74.2297 19.5281 73.1505 21.924 72.8654 22.1955H72.1324C71.9288 22.1955 71.827 22.1005 71.827 21.9104C74.0125 16.3312 75.2885 13.4941 75.6551 13.3991Z"/>
<path d="M85.9363 7.55512H86.3843C86.5744 7.59584 86.6694 7.69765 86.6694 7.86055C86.6694 8.26779 86.2282 9.48952 85.3458 11.5257H120.267L121 11.6886V12.1162C121 12.4149 120.111 12.5642 118.333 12.5642H117.762L117.335 12.2588H84.9182C84.9182 12.4217 81.1512 21.2724 73.6172 38.8111C73.8208 38.8111 73.9227 38.9536 73.9227 39.2387C73.3118 40.5961 72.7213 41.2749 72.1511 41.2749C71.6625 41.2206 71.4181 41.078 71.4181 40.8473L83.615 12.2588H74.2077C74.0177 12.2588 73.9227 12.157 73.9227 11.9533C74.0313 11.6683 74.3299 11.5257 74.8186 11.5257H83.7372C83.9001 11.5257 84.5381 10.2565 85.6513 7.71801L85.9363 7.55512Z"/>
<path d="M88.5411 15.0688C89.0569 15.0688 89.3963 15.5575 89.5592 16.5348C89.5592 16.6163 89.4166 17.3086 89.1316 18.6118C89.946 18.3131 90.8691 17.6751 91.9008 16.6977C92.0909 16.5891 92.2877 16.5348 92.4913 16.5348C92.6949 16.6434 92.8443 16.6977 92.9393 16.6977V17.0032C91.5818 18.5643 90.1157 19.3448 88.5411 19.3448C88.5411 19.7113 88.1474 20.1525 87.3601 20.6684H86.0365C85.6564 20.4783 85.4664 20.1322 85.4664 19.6299V19.467C85.4664 17.7566 86.1994 16.3448 87.6655 15.2317L88.5411 15.0688ZM88.2356 16.4127V17.0032H88.3985V16.4127H88.2356ZM88.0931 17.1457V17.7362H88.2356V17.1457H88.0931ZM86.7695 18.0009L86.627 19.467V19.9353H86.7695C87.1361 19.7317 87.3804 19.4331 87.5026 19.0394C87.4483 19.0394 87.2039 18.6932 86.7695 18.0009Z"/>
<path d="M98.3133 14.1525C98.7341 14.3561 98.9784 14.5597 99.0463 14.7633C99.0463 15.7814 98.2115 18.2656 96.5418 22.2159V22.3788H95.6458C95.5101 22.3788 95.3675 22.2362 95.2182 21.9512C96.8743 17.933 97.7024 15.7339 97.7024 15.3538C96.5757 16.4941 95.354 18.1502 94.0372 20.3222H93.0191C92.8834 20.3222 92.734 20.1797 92.5711 19.8946C93.1413 17.3561 93.7318 16.0869 94.3426 16.0869H94.6481C94.8245 16.0869 94.9128 16.2769 94.9128 16.657C96.1209 14.9873 97.2544 14.1525 98.3133 14.1525Z"/>
<path d="M103.728 15.0688C104.244 15.0688 104.583 15.5575 104.746 16.5348C104.746 16.6163 104.604 17.3086 104.318 18.6118C105.133 18.3131 106.056 17.6751 107.088 16.6977C107.278 16.5891 107.475 16.5348 107.678 16.5348C107.882 16.6434 108.031 16.6977 108.126 16.6977V17.0032C106.769 18.5643 105.303 19.3448 103.728 19.3448C103.728 19.7113 103.334 20.1525 102.547 20.6684H101.223C100.843 20.4783 100.653 20.1322 100.653 19.6299V19.467C100.653 17.7566 101.386 16.3448 102.852 15.2317L103.728 15.0688ZM103.423 16.4127V17.0032H103.585V16.4127H103.423ZM103.28 17.1457V17.7362H103.423V17.1457H103.28ZM101.956 18.0009L101.814 19.467V19.9353H101.956C102.323 19.7317 102.567 19.4331 102.69 19.0394C102.635 19.0394 102.391 18.6932 101.956 18.0009Z"/>
</mask>
<path d="M7.90278 13.9692H8.75799L8.92089 14.7022C8.81229 15.2317 8.75799 15.5303 8.75799 15.5982C9.80325 14.8244 10.6924 14.4375 11.4254 14.4375H11.6901C12.4911 14.4375 12.8915 14.8244 12.8915 15.5982V16.0461C12.8915 16.4534 12.5454 17.0846 11.853 17.9398H11.9956C12.2671 17.9398 13.0544 17.4511 14.3576 16.4737H14.6223C14.8259 16.5823 14.982 16.6366 15.0906 16.6366V17.3697C13.5431 18.5235 11.9752 19.1005 10.387 19.1005C9.78967 19.5892 9.30098 19.8335 8.92089 19.8335H8.33038C8.12676 19.8335 8.02495 19.7453 8.02495 19.5688V19.2634C8.02495 19.1005 8.61545 18.7611 9.79646 18.2453C10.9775 17.105 11.568 16.3244 11.568 15.9036V15.5982C11.568 15.4081 11.4662 15.3131 11.2625 15.3131C10.0272 15.6389 8.8055 17.0032 7.59734 19.4059C5.88692 22.6638 4.03396 26.7159 2.03847 31.5621H1.73304L1 31.4399V31.1345C1.59729 29.5327 3.79641 24.0553 7.59734 14.7022C7.59734 14.2135 7.69915 13.9692 7.90278 13.9692Z" fill="#FFC700"/>
<path d="M16.7994 14.4579H17.2677C17.4442 14.485 17.5325 14.5869 17.5325 14.7633V15.0484C16.6637 17.3697 16.2293 18.6389 16.2293 18.8561C16.3922 18.8561 17.1727 18.0213 18.5709 16.3516L18.9985 16.0869H19.1614L19.8945 16.2294V16.5145C19.8945 16.7588 19.7519 17.3968 19.4669 18.4285L19.7316 18.5507C19.9759 18.5507 21.2519 17.872 23.5597 16.5145C23.9398 16.6502 24.1298 16.7995 24.1298 16.9624V17.0846C22.6094 18.4285 21.2452 19.1616 20.037 19.2837H19.304C18.6117 19.2837 18.2655 19.0394 18.2655 18.5507C17.4917 19.3516 16.8605 19.7521 16.3718 19.7521H15.3333C15.0483 19.6435 14.9057 19.3448 14.9057 18.8561C15.7066 15.924 16.3379 14.4579 16.7994 14.4579Z" fill="#FFC700"/>
<path d="M29.1373 7.55512H29.5852C29.7753 7.59584 29.8703 7.69765 29.8703 7.86055C29.8703 8.26779 29.4291 9.48952 28.5468 11.5257H63.4679L64.2009 11.6886V12.1162C64.2009 12.4149 63.3118 12.5642 61.5335 12.5642H60.9633L60.5357 12.2588H28.1192C28.1192 12.4217 24.3522 21.2724 16.8182 38.8111C17.0218 38.8111 17.1236 38.9536 17.1236 39.2387C16.5127 40.5961 15.9222 41.2749 15.3521 41.2749C14.8634 41.2206 14.619 41.078 14.619 40.8473L26.816 12.2588H17.4087C17.2186 12.2588 17.1236 12.157 17.1236 11.9533C17.2322 11.6683 17.5308 11.5257 18.0195 11.5257H26.9382C27.101 11.5257 27.7391 10.2565 28.8522 7.71801L29.1373 7.55512Z" fill="#FFC700"/>
<path d="M31.0293 13.3991H31.5995C31.9524 13.7792 32.7873 14.2678 34.104 14.8651V15.0077C34.104 15.2384 33.5678 16.562 32.4954 18.9783V19.1005C32.7533 19.1005 33.5339 18.3674 34.837 16.9014C34.9999 16.5213 35.3461 16.3312 35.8755 16.3312H35.9977C36.2013 16.3448 36.3031 16.4466 36.3031 16.6366V16.9014C34.742 18.9647 33.5203 19.9964 32.6379 19.9964H32.0678C31.4705 19.9964 31.1719 19.6978 31.1719 19.1005C31.1719 18.6797 31.7148 17.3697 32.8008 15.1706C32.3664 15.062 31.9253 15.0077 31.4773 15.0077C29.604 19.5281 28.5248 21.924 28.2397 22.1955H27.5067C27.303 22.1955 27.2012 22.1005 27.2012 21.9104C29.3868 16.3312 30.6628 13.4941 31.0293 13.3991Z" fill="#FFC700"/>
<path d="M41.1477 15.1298H41.5753C41.7246 15.1298 41.8672 15.2724 42.0029 15.5575C41.3377 16.8878 40.8083 18.062 40.4147 19.0801H40.5368C42.2337 17.329 43.3129 16.4534 43.7744 16.4534C43.978 16.5484 44.1206 16.5959 44.202 16.5959V17.0235C42.2472 19.1819 40.883 20.2611 40.1092 20.2611H39.8038C39.2336 20.2611 38.9486 20.0168 38.9486 19.5281C39.03 19.3245 39.0707 19.1751 39.0707 19.0801C37.8083 20.2611 36.8852 20.8516 36.3015 20.8516H35.5685C34.9712 20.8516 34.6725 20.553 34.6725 19.9557C34.6725 18.8833 35.7517 17.5597 37.9101 15.9851H38.9486C39.2608 15.9851 39.6002 16.1412 39.9667 16.4534C40.1839 15.9783 40.5775 15.5371 41.1477 15.1298ZM38.5006 16.7181C36.8445 18.1434 36.0164 19.2769 36.0164 20.1186C36.5323 19.9693 37.6522 18.9376 39.3762 17.0235C39.1183 17.0235 38.8264 16.9217 38.5006 16.7181Z" fill="#FFC700"/>
<path d="M63.5021 0.75415C63.9229 0.957772 64.1673 1.14782 64.2351 1.32429V1.62972C64.1265 2.22701 62.07 7.50082 58.0654 17.4511C58.0654 17.519 58.0111 17.7226 57.9025 18.062C59.0835 16.1072 60.217 15.1298 61.303 15.1298H61.7306C61.9478 15.1298 62.0971 15.3742 62.1786 15.8629C61.7577 16.881 61.4116 17.8991 61.1401 18.9172C61.7781 18.5371 62.8573 17.614 64.3777 16.148H64.9682C65.1446 16.1615 65.2329 16.2633 65.2329 16.4534V16.7181C63.6039 18.4964 62.3822 19.5756 61.5677 19.9557H60.2645C60.1152 19.9557 59.9727 19.8131 59.8369 19.5281V18.9172C59.8369 18.4692 60.0813 17.6955 60.5699 16.5959H60.407C59.0496 18.9444 58.0247 20.1186 57.3324 20.1186H57.0473C56.5179 20.1186 56.226 19.9625 56.1717 19.6502V19.5281C56.7554 17.3968 59.0021 11.485 62.9116 1.79262L62.7691 1.05958C63.0677 0.855961 63.312 0.75415 63.5021 0.75415Z" fill="#FFC700"/>
<path d="M70.0978 15.1298H70.5254C70.6747 15.1298 70.8173 15.2724 70.953 15.5575C70.2879 16.8878 69.7584 18.062 69.3648 19.0801H69.4869C71.1838 17.329 72.263 16.4534 72.7245 16.4534C72.9281 16.5484 73.0707 16.5959 73.1521 16.5959V17.0235C71.1974 19.1819 69.8331 20.2611 69.0593 20.2611H68.7539C68.1838 20.2611 67.8987 20.0168 67.8987 19.5281C67.9801 19.3245 68.0209 19.1751 68.0209 19.0801C66.7584 20.2611 65.8353 20.8516 65.2516 20.8516H64.5186C63.9213 20.8516 63.6226 20.553 63.6226 19.9557C63.6226 18.8833 64.7018 17.5597 66.8602 15.9851H67.8987C68.2109 15.9851 68.5503 16.1412 68.9168 16.4534C69.134 15.9783 69.5277 15.5371 70.0978 15.1298ZM67.4507 16.7181C65.7946 18.1434 64.9665 19.2769 64.9665 20.1186C65.4824 19.9693 66.6023 18.9376 68.3263 17.0235C68.0684 17.0235 67.7765 16.9217 67.4507 16.7181Z" fill="#FFC700"/>
<path d="M75.6551 13.3991H76.2252C76.5781 13.7792 77.413 14.2678 78.7297 14.8651V15.0077C78.7297 15.2384 78.1935 16.562 77.1211 18.9783V19.1005C77.3791 19.1005 78.1596 18.3674 79.4628 16.9014C79.6257 16.5213 79.9718 16.3312 80.5013 16.3312H80.6234C80.8271 16.3448 80.9289 16.4466 80.9289 16.6366V16.9014C79.3678 18.9647 78.146 19.9964 77.2637 19.9964H76.6935C76.0962 19.9964 75.7976 19.6978 75.7976 19.1005C75.7976 18.6797 76.3406 17.3697 77.4266 15.1706C76.9922 15.062 76.551 15.0077 76.103 15.0077C74.2297 19.5281 73.1505 21.924 72.8654 22.1955H72.1324C71.9288 22.1955 71.827 22.1005 71.827 21.9104C74.0125 16.3312 75.2885 13.4941 75.6551 13.3991Z" fill="#FFC700"/>
<path d="M85.9363 7.55512H86.3843C86.5744 7.59584 86.6694 7.69765 86.6694 7.86055C86.6694 8.26779 86.2282 9.48952 85.3458 11.5257H120.267L121 11.6886V12.1162C121 12.4149 120.111 12.5642 118.333 12.5642H117.762L117.335 12.2588H84.9182C84.9182 12.4217 81.1512 21.2724 73.6172 38.8111C73.8208 38.8111 73.9227 38.9536 73.9227 39.2387C73.3118 40.5961 72.7213 41.2749 72.1511 41.2749C71.6625 41.2206 71.4181 41.078 71.4181 40.8473L83.615 12.2588H74.2077C74.0177 12.2588 73.9227 12.157 73.9227 11.9533C74.0313 11.6683 74.3299 11.5257 74.8186 11.5257H83.7372C83.9001 11.5257 84.5381 10.2565 85.6513 7.71801L85.9363 7.55512Z" fill="#FFC700"/>
<path d="M88.5411 15.0688C89.0569 15.0688 89.3963 15.5575 89.5592 16.5348C89.5592 16.6163 89.4166 17.3086 89.1316 18.6118C89.946 18.3131 90.8691 17.6751 91.9008 16.6977C92.0909 16.5891 92.2877 16.5348 92.4913 16.5348C92.6949 16.6434 92.8443 16.6977 92.9393 16.6977V17.0032C91.5818 18.5643 90.1157 19.3448 88.5411 19.3448C88.5411 19.7113 88.1474 20.1525 87.3601 20.6684H86.0365C85.6564 20.4783 85.4664 20.1322 85.4664 19.6299V19.467C85.4664 17.7566 86.1994 16.3448 87.6655 15.2317L88.5411 15.0688ZM88.2356 16.4127V17.0032H88.3985V16.4127H88.2356ZM88.0931 17.1457V17.7362H88.2356V17.1457H88.0931ZM86.7695 18.0009L86.627 19.467V19.9353H86.7695C87.1361 19.7317 87.3804 19.4331 87.5026 19.0394C87.4483 19.0394 87.2039 18.6932 86.7695 18.0009Z" fill="#FFC700"/>
<path d="M98.3133 14.1525C98.7341 14.3561 98.9784 14.5597 99.0463 14.7633C99.0463 15.7814 98.2115 18.2656 96.5418 22.2159V22.3788H95.6458C95.5101 22.3788 95.3675 22.2362 95.2182 21.9512C96.8743 17.933 97.7024 15.7339 97.7024 15.3538C96.5757 16.4941 95.354 18.1502 94.0372 20.3222H93.0191C92.8834 20.3222 92.734 20.1797 92.5711 19.8946C93.1413 17.3561 93.7318 16.0869 94.3426 16.0869H94.6481C94.8245 16.0869 94.9128 16.2769 94.9128 16.657C96.1209 14.9873 97.2544 14.1525 98.3133 14.1525Z" fill="#FFC700"/>
<path d="M103.728 15.0688C104.244 15.0688 104.583 15.5575 104.746 16.5348C104.746 16.6163 104.604 17.3086 104.318 18.6118C105.133 18.3131 106.056 17.6751 107.088 16.6977C107.278 16.5891 107.475 16.5348 107.678 16.5348C107.882 16.6434 108.031 16.6977 108.126 16.6977V17.0032C106.769 18.5643 105.303 19.3448 103.728 19.3448C103.728 19.7113 103.334 20.1525 102.547 20.6684H101.223C100.843 20.4783 100.653 20.1322 100.653 19.6299V19.467C100.653 17.7566 101.386 16.3448 102.852 15.2317L103.728 15.0688ZM103.423 16.4127V17.0032H103.585V16.4127H103.423ZM103.28 17.1457V17.7362H103.423V17.1457H103.28ZM101.956 18.0009L101.814 19.467V19.9353H101.956C102.323 19.7317 102.567 19.4331 102.69 19.0394C102.635 19.0394 102.391 18.6932 101.956 18.0009Z" fill="#FFC700"/>
<path d="M7.90278 13.9692H8.75799L8.92089 14.7022C8.81229 15.2317 8.75799 15.5303 8.75799 15.5982C9.80325 14.8244 10.6924 14.4375 11.4254 14.4375H11.6901C12.4911 14.4375 12.8915 14.8244 12.8915 15.5982V16.0461C12.8915 16.4534 12.5454 17.0846 11.853 17.9398H11.9956C12.2671 17.9398 13.0544 17.4511 14.3576 16.4737H14.6223C14.8259 16.5823 14.982 16.6366 15.0906 16.6366V17.3697C13.5431 18.5235 11.9752 19.1005 10.387 19.1005C9.78967 19.5892 9.30098 19.8335 8.92089 19.8335H8.33038C8.12676 19.8335 8.02495 19.7453 8.02495 19.5688V19.2634C8.02495 19.1005 8.61545 18.7611 9.79646 18.2453C10.9775 17.105 11.568 16.3244 11.568 15.9036V15.5982C11.568 15.4081 11.4662 15.3131 11.2625 15.3131C10.0272 15.6389 8.8055 17.0032 7.59734 19.4059C5.88692 22.6638 4.03396 26.7159 2.03847 31.5621H1.73304L1 31.4399V31.1345C1.59729 29.5327 3.79641 24.0553 7.59734 14.7022C7.59734 14.2135 7.69915 13.9692 7.90278 13.9692Z" stroke="#2D7BF7" stroke-linecap="round" stroke-linejoin="round" mask="url(#path-2-outside-1)"/>
<path d="M16.7994 14.4579H17.2677C17.4442 14.485 17.5325 14.5869 17.5325 14.7633V15.0484C16.6637 17.3697 16.2293 18.6389 16.2293 18.8561C16.3922 18.8561 17.1727 18.0213 18.5709 16.3516L18.9985 16.0869H19.1614L19.8945 16.2294V16.5145C19.8945 16.7588 19.7519 17.3968 19.4669 18.4285L19.7316 18.5507C19.9759 18.5507 21.2519 17.872 23.5597 16.5145C23.9398 16.6502 24.1298 16.7995 24.1298 16.9624V17.0846C22.6094 18.4285 21.2452 19.1616 20.037 19.2837H19.304C18.6117 19.2837 18.2655 19.0394 18.2655 18.5507C17.4917 19.3516 16.8605 19.7521 16.3718 19.7521H15.3333C15.0483 19.6435 14.9057 19.3448 14.9057 18.8561C15.7066 15.924 16.3379 14.4579 16.7994 14.4579Z" stroke="#2D7BF7" stroke-linecap="round" stroke-linejoin="round" mask="url(#path-2-outside-1)"/>
<path d="M29.1373 7.55512H29.5852C29.7753 7.59584 29.8703 7.69765 29.8703 7.86055C29.8703 8.26779 29.4291 9.48952 28.5468 11.5257H63.4679L64.2009 11.6886V12.1162C64.2009 12.4149 63.3118 12.5642 61.5335 12.5642H60.9633L60.5357 12.2588H28.1192C28.1192 12.4217 24.3522 21.2724 16.8182 38.8111C17.0218 38.8111 17.1236 38.9536 17.1236 39.2387C16.5127 40.5961 15.9222 41.2749 15.3521 41.2749C14.8634 41.2206 14.619 41.078 14.619 40.8473L26.816 12.2588H17.4087C17.2186 12.2588 17.1236 12.157 17.1236 11.9533C17.2322 11.6683 17.5308 11.5257 18.0195 11.5257H26.9382C27.101 11.5257 27.7391 10.2565 28.8522 7.71801L29.1373 7.55512Z" stroke="#2D7BF7" stroke-linecap="round" stroke-linejoin="round" mask="url(#path-2-outside-1)"/>
<path d="M31.0293 13.3991H31.5995C31.9524 13.7792 32.7873 14.2678 34.104 14.8651V15.0077C34.104 15.2384 33.5678 16.562 32.4954 18.9783V19.1005C32.7533 19.1005 33.5339 18.3674 34.837 16.9014C34.9999 16.5213 35.3461 16.3312 35.8755 16.3312H35.9977C36.2013 16.3448 36.3031 16.4466 36.3031 16.6366V16.9014C34.742 18.9647 33.5203 19.9964 32.6379 19.9964H32.0678C31.4705 19.9964 31.1719 19.6978 31.1719 19.1005C31.1719 18.6797 31.7148 17.3697 32.8008 15.1706C32.3664 15.062 31.9253 15.0077 31.4773 15.0077C29.604 19.5281 28.5248 21.924 28.2397 22.1955H27.5067C27.303 22.1955 27.2012 22.1005 27.2012 21.9104C29.3868 16.3312 30.6628 13.4941 31.0293 13.3991Z" stroke="#2D7BF7" stroke-linecap="round" stroke-linejoin="round" mask="url(#path-2-outside-1)"/>
<path d="M41.1477 15.1298H41.5753C41.7246 15.1298 41.8672 15.2724 42.0029 15.5575C41.3377 16.8878 40.8083 18.062 40.4147 19.0801H40.5368C42.2337 17.329 43.3129 16.4534 43.7744 16.4534C43.978 16.5484 44.1206 16.5959 44.202 16.5959V17.0235C42.2472 19.1819 40.883 20.2611 40.1092 20.2611H39.8038C39.2336 20.2611 38.9486 20.0168 38.9486 19.5281C39.03 19.3245 39.0707 19.1751 39.0707 19.0801C37.8083 20.2611 36.8852 20.8516 36.3015 20.8516H35.5685C34.9712 20.8516 34.6725 20.553 34.6725 19.9557C34.6725 18.8833 35.7517 17.5597 37.9101 15.9851H38.9486C39.2608 15.9851 39.6002 16.1412 39.9667 16.4534C40.1839 15.9783 40.5775 15.5371 41.1477 15.1298ZM38.5006 16.7181C36.8445 18.1434 36.0164 19.2769 36.0164 20.1186C36.5323 19.9693 37.6522 18.9376 39.3762 17.0235C39.1183 17.0235 38.8264 16.9217 38.5006 16.7181Z" stroke="#2D7BF7" stroke-linecap="round" stroke-linejoin="round" mask="url(#path-2-outside-1)"/>
<path d="M63.5021 0.75415C63.9229 0.957772 64.1673 1.14782 64.2351 1.32429V1.62972C64.1265 2.22701 62.07 7.50082 58.0654 17.4511C58.0654 17.519 58.0111 17.7226 57.9025 18.062C59.0835 16.1072 60.217 15.1298 61.303 15.1298H61.7306C61.9478 15.1298 62.0971 15.3742 62.1786 15.8629C61.7577 16.881 61.4116 17.8991 61.1401 18.9172C61.7781 18.5371 62.8573 17.614 64.3777 16.148H64.9682C65.1446 16.1615 65.2329 16.2633 65.2329 16.4534V16.7181C63.6039 18.4964 62.3822 19.5756 61.5677 19.9557H60.2645C60.1152 19.9557 59.9727 19.8131 59.8369 19.5281V18.9172C59.8369 18.4692 60.0813 17.6955 60.5699 16.5959H60.407C59.0496 18.9444 58.0247 20.1186 57.3324 20.1186H57.0473C56.5179 20.1186 56.226 19.9625 56.1717 19.6502V19.5281C56.7554 17.3968 59.0021 11.485 62.9116 1.79262L62.7691 1.05958C63.0677 0.855961 63.312 0.75415 63.5021 0.75415Z" stroke="#2D7BF7" stroke-linecap="round" stroke-linejoin="round" mask="url(#path-2-outside-1)"/>
<path d="M70.0978 15.1298H70.5254C70.6747 15.1298 70.8173 15.2724 70.953 15.5575C70.2879 16.8878 69.7584 18.062 69.3648 19.0801H69.4869C71.1838 17.329 72.263 16.4534 72.7245 16.4534C72.9281 16.5484 73.0707 16.5959 73.1521 16.5959V17.0235C71.1974 19.1819 69.8331 20.2611 69.0593 20.2611H68.7539C68.1838 20.2611 67.8987 20.0168 67.8987 19.5281C67.9801 19.3245 68.0209 19.1751 68.0209 19.0801C66.7584 20.2611 65.8353 20.8516 65.2516 20.8516H64.5186C63.9213 20.8516 63.6226 20.553 63.6226 19.9557C63.6226 18.8833 64.7018 17.5597 66.8602 15.9851H67.8987C68.2109 15.9851 68.5503 16.1412 68.9168 16.4534C69.134 15.9783 69.5277 15.5371 70.0978 15.1298ZM67.4507 16.7181C65.7946 18.1434 64.9665 19.2769 64.9665 20.1186C65.4824 19.9693 66.6023 18.9376 68.3263 17.0235C68.0684 17.0235 67.7765 16.9217 67.4507 16.7181Z" stroke="#2D7BF7" stroke-linecap="round" stroke-linejoin="round" mask="url(#path-2-outside-1)"/>
<path d="M75.6551 13.3991H76.2252C76.5781 13.7792 77.413 14.2678 78.7297 14.8651V15.0077C78.7297 15.2384 78.1935 16.562 77.1211 18.9783V19.1005C77.3791 19.1005 78.1596 18.3674 79.4628 16.9014C79.6257 16.5213 79.9718 16.3312 80.5013 16.3312H80.6234C80.8271 16.3448 80.9289 16.4466 80.9289 16.6366V16.9014C79.3678 18.9647 78.146 19.9964 77.2637 19.9964H76.6935C76.0962 19.9964 75.7976 19.6978 75.7976 19.1005C75.7976 18.6797 76.3406 17.3697 77.4266 15.1706C76.9922 15.062 76.551 15.0077 76.103 15.0077C74.2297 19.5281 73.1505 21.924 72.8654 22.1955H72.1324C71.9288 22.1955 71.827 22.1005 71.827 21.9104C74.0125 16.3312 75.2885 13.4941 75.6551 13.3991Z" stroke="#2D7BF7" stroke-linecap="round" stroke-linejoin="round" mask="url(#path-2-outside-1)"/>
<path d="M85.9363 7.55512H86.3843C86.5744 7.59584 86.6694 7.69765 86.6694 7.86055C86.6694 8.26779 86.2282 9.48952 85.3458 11.5257H120.267L121 11.6886V12.1162C121 12.4149 120.111 12.5642 118.333 12.5642H117.762L117.335 12.2588H84.9182C84.9182 12.4217 81.1512 21.2724 73.6172 38.8111C73.8208 38.8111 73.9227 38.9536 73.9227 39.2387C73.3118 40.5961 72.7213 41.2749 72.1511 41.2749C71.6625 41.2206 71.4181 41.078 71.4181 40.8473L83.615 12.2588H74.2077C74.0177 12.2588 73.9227 12.157 73.9227 11.9533C74.0313 11.6683 74.3299 11.5257 74.8186 11.5257H83.7372C83.9001 11.5257 84.5381 10.2565 85.6513 7.71801L85.9363 7.55512Z" stroke="#2D7BF7" stroke-linecap="round" stroke-linejoin="round" mask="url(#path-2-outside-1)"/>
<path d="M88.5411 15.0688C89.0569 15.0688 89.3963 15.5575 89.5592 16.5348C89.5592 16.6163 89.4166 17.3086 89.1316 18.6118C89.946 18.3131 90.8691 17.6751 91.9008 16.6977C92.0909 16.5891 92.2877 16.5348 92.4913 16.5348C92.6949 16.6434 92.8443 16.6977 92.9393 16.6977V17.0032C91.5818 18.5643 90.1157 19.3448 88.5411 19.3448C88.5411 19.7113 88.1474 20.1525 87.3601 20.6684H86.0365C85.6564 20.4783 85.4664 20.1322 85.4664 19.6299V19.467C85.4664 17.7566 86.1994 16.3448 87.6655 15.2317L88.5411 15.0688ZM88.2356 16.4127V17.0032H88.3985V16.4127H88.2356ZM88.0931 17.1457V17.7362H88.2356V17.1457H88.0931ZM86.7695 18.0009L86.627 19.467V19.9353H86.7695C87.1361 19.7317 87.3804 19.4331 87.5026 19.0394C87.4483 19.0394 87.2039 18.6932 86.7695 18.0009Z" stroke="#2D7BF7" stroke-linecap="round" stroke-linejoin="round" mask="url(#path-2-outside-1)"/>
<path d="M98.3133 14.1525C98.7341 14.3561 98.9784 14.5597 99.0463 14.7633C99.0463 15.7814 98.2115 18.2656 96.5418 22.2159V22.3788H95.6458C95.5101 22.3788 95.3675 22.2362 95.2182 21.9512C96.8743 17.933 97.7024 15.7339 97.7024 15.3538C96.5757 16.4941 95.354 18.1502 94.0372 20.3222H93.0191C92.8834 20.3222 92.734 20.1797 92.5711 19.8946C93.1413 17.3561 93.7318 16.0869 94.3426 16.0869H94.6481C94.8245 16.0869 94.9128 16.2769 94.9128 16.657C96.1209 14.9873 97.2544 14.1525 98.3133 14.1525Z" stroke="#2D7BF7" stroke-linecap="round" stroke-linejoin="round" mask="url(#path-2-outside-1)"/>
<path d="M103.728 15.0688C104.244 15.0688 104.583 15.5575 104.746 16.5348C104.746 16.6163 104.604 17.3086 104.318 18.6118C105.133 18.3131 106.056 17.6751 107.088 16.6977C107.278 16.5891 107.475 16.5348 107.678 16.5348C107.882 16.6434 108.031 16.6977 108.126 16.6977V17.0032C106.769 18.5643 105.303 19.3448 103.728 19.3448C103.728 19.7113 103.334 20.1525 102.547 20.6684H101.223C100.843 20.4783 100.653 20.1322 100.653 19.6299V19.467C100.653 17.7566 101.386 16.3448 102.852 15.2317L103.728 15.0688ZM103.423 16.4127V17.0032H103.585V16.4127H103.423ZM103.28 17.1457V17.7362H103.423V17.1457H103.28ZM101.956 18.0009L101.814 19.467V19.9353H101.956C102.323 19.7317 102.567 19.4331 102.69 19.0394C102.635 19.0394 102.391 18.6932 101.956 18.0009Z" stroke="#2D7BF7" stroke-linecap="round" stroke-linejoin="round" mask="url(#path-2-outside-1)"/>
</svg>
